HIERARCHY
ROOT joint_Root
{
	OFFSET 0.0 0.0 0.0
	CHANNELS 6 Xposition Yposition Zposition Zrotation Xrotation Yrotation 
	JOINT Hips
	{
		OFFSET -0.726466 93.3139 -2.00062
		CHANNELS 6 Xposition Yposition Zposition Zrotation Xrotation Yrotation 
		JOINT Spine
		{
			OFFSET 15.7357 0.0 0.0
			CHANNELS 6 Xposition Yposition Zposition Zrotation Xrotation Yrotation 
			JOINT Chest
			{
				OFFSET 8.98455 -0.406207 0.0
				CHANNELS 6 Xposition Yposition Zposition Zrotation Xrotation Yrotation 
				JOINT Neck
				{
					OFFSET 16.3773 0.0 0.0
					CHANNELS 6 Xposition Yposition Zposition Zrotation Xrotation Yrotation 
					JOINT Head
					{
						OFFSET 6.45672 0.0 0.0
						CHANNELS 6 Xposition Yposition Zposition Zrotation Xrotation Yrotation 
						End Site
						{
							OFFSET 0.0 0.0 0.0
						}
					}
				}
				JOINT Shoulder_L
				{
					OFFSET 12.9942 -0.242716 4.98039
					CHANNELS 6 Xposition Yposition Zposition Zrotation Xrotation Yrotation 
					JOINT UpperArm_L
					{
						OFFSET 5.34809 0.0 0.0
						CHANNELS 6 Xposition Yposition Zposition Zrotation Xrotation Yrotation 
						JOINT LowerArm_L
						{
							OFFSET 24.3286 1.87007e-05 0.0
							CHANNELS 6 Xposition Yposition Zposition Zrotation Xrotation Yrotation 
							JOINT Hand_L
							{
								OFFSET 22.2916 0.0 0.0
								CHANNELS 6 Xposition Yposition Zposition Zrotation Xrotation Yrotation 
								End Site
								{
									OFFSET 0.0 0.0 0.0
								}
							}
						}
					}
				}
				JOINT Shoulder_R
				{
					OFFSET 12.9945 -0.242716 -4.98039
					CHANNELS 6 Xposition Yposition Zposition Zrotation Xrotation Yrotation 
					JOINT UpperArm_R
					{
						OFFSET -5.34813 0.0 0.0
						CHANNELS 6 Xposition Yposition Zposition Zrotation Xrotation Yrotation 
						JOINT LowerArm_R
						{
							OFFSET -24.3289 0.000322201 0.0
							CHANNELS 6 Xposition Yposition Zposition Zrotation Xrotation Yrotation 
							JOINT Hand_R
							{
								OFFSET -22.2915 -0.000108084 0.0
								CHANNELS 6 Xposition Yposition Zposition Zrotation Xrotation Yrotation 
								End Site
								{
									OFFSET 0.0 0.0 0.0
								}
							}
						}
					}
				}
			}
		}
		JOINT UpperLeg_L
		{
			OFFSET -2.19248 -6.46944 0.0
			CHANNELS 6 Xposition Yposition Zposition Zrotation Xrotation Yrotation 
			JOINT LowerLeg_L
			{
				OFFSET 39.0811 0.0 -1.23785e-05
				CHANNELS 6 Xposition Yposition Zposition Zrotation Xrotation Yrotation 
				JOINT Foot_L
				{
					OFFSET 40.9854 0.0 -1.26872e-05
					CHANNELS 6 Xposition Yposition Zposition Zrotation Xrotation Yrotation 
					JOINT Toes_L
					{
						OFFSET 11.7543 0.0 0.0
						CHANNELS 6 Xposition Yposition Zposition Zrotation Xrotation Yrotation 
						End Site
						{
							OFFSET 0.0 0.0 0.0
						}
					}
				}
			}
		}
		JOINT UpperLeg_R
		{
			OFFSET -2.19251 6.46944 0.0
			CHANNELS 6 Xposition Yposition Zposition Zrotation Xrotation Yrotation 
			JOINT LowerLeg_R
			{
				OFFSET -39.0811 -0.00228153 -0.0401928
				CHANNELS 6 Xposition Yposition Zposition Zrotation Xrotation Yrotation 
				JOINT Foot_R
				{
					OFFSET -40.9854 0.0 0.0
					CHANNELS 6 Xposition Yposition Zposition Zrotation Xrotation Yrotation 
					JOINT Toes_R
					{
						OFFSET -11.7543 0.0 0.0
						CHANNELS 6 Xposition Yposition Zposition Zrotation Xrotation Yrotation 
						End Site
						{
							OFFSET 0.0 0.0 0.0
						}
					}
				}
			}
		}
	}
}
MOTION
Frames:	6
Frame Time:	0.0333333
0.000000 0.000000 0.000000 0.000000 0.000000 -0.000000 -0.189239 92.340300 -1.225220 87.835100 -0.907957 5.374290 15.735700 0.000005 -0.000001 87.848500 85.938300 -88.021500 8.984550 -0.406207 -0.000000 0.351230 -0.293693 -0.344858 16.377300 -0.000001 -0.000001 4.187060 -2.860860 2.299330 6.456720 -0.000001 -0.000000 7.070100 -3.763930 -1.300180 12.994200 -0.242716 4.980390 -89.588900 -1.256640 -71.882300 5.348090 -0.000007 -0.000001 -70.796600 37.546700 -10.931600 24.328600 0.000019 0.000005 1.671510 4.338890 -21.091900 22.291600 -0.000001 0.000005 5.625790 5.472190 -5.452300 12.994500 -0.242716 -4.980390 89.996000 0.011959 -71.425600 -5.348130 -0.000001 -0.000004 -75.303800 -30.709200 -90.495600 -24.328900 0.000322 -0.000009 12.292100 0.683862 -86.866200 -22.291500 -0.000108 -0.000004 21.988300 5.289690 0.359414 -2.192480 -6.469440 -0.000000 -175.284000 -7.375430 -1.778320 39.081100 -0.000007 -0.000012 -0.102828 0.240825 23.121800 40.985400 -0.000006 -0.000013 0.322634 4.507720 -66.179600 11.754300 -0.000000 0.000003 -0.000043 -0.000494 -16.596800 -2.192510 6.469440 -0.000001 179.564000 14.220000 -179.074000 -39.081100 -0.002282 -0.040193 -0.035971 0.111826 19.360700 -40.985400 0.000008 0.000006 3.364070 8.081610 -65.348900 -11.754300 -0.000006 -0.000006 -0.009103 -0.096808 -20.516400
0.000000 0.000000 0.000000 0.000000 0.000000 -0.000000 -0.186671 92.344200 -1.245910 87.859400 -0.837191 5.410650 15.735700 0.000005 -0.000001 87.656200 85.915500 -87.846100 8.984550 -0.406207 -0.000000 0.395729 -0.321760 -0.378384 16.377300 -0.000001 -0.000001 4.159790 -2.875600 2.339300 6.456720 -0.000001 -0.000000 7.096340 -3.781670 -1.314480 12.994200 -0.242716 4.980390 -89.589200 -1.257050 -71.901100 5.348090 -0.000007 -0.000001 -70.709200 37.551100 -10.977300 24.328600 0.000019 0.000005 1.630940 4.233140 -21.092800 22.291600 -0.000001 0.000005 5.643620 5.470470 -5.387990 12.994500 -0.242716 -4.980390 89.989900 0.029924 -71.425900 -5.348130 -0.000001 -0.000004 -75.157800 -30.777500 -90.471400 -24.328900 0.000322 -0.000009 12.306800 0.745508 -86.588400 -22.291500 -0.000108 -0.000004 22.004900 5.289550 0.363310 -2.192480 -6.469440 -0.000000 -175.307000 -7.376440 -1.756310 39.081100 -0.000007 -0.000012 -0.100839 0.236484 23.093900 40.985400 -0.000006 -0.000013 0.338185 4.567780 -66.142400 11.754300 -0.000000 0.000003 -0.000035 -0.000414 -16.593700 -2.192510 6.469440 -0.000001 179.534000 14.266200 -179.052000 -39.081100 -0.002282 -0.040193 -0.035687 0.110962 19.369400 -40.985400 0.000008 0.000006 3.395950 8.050300 -65.347700 -11.754300 -0.000006 -0.000006 -0.009273 -0.098124 -20.570200
0.000000 0.000000 0.000000 0.000000 0.000000 -0.000000 -0.199304 92.346400 -1.285740 87.852000 -0.787984 5.345800 15.735700 0.000005 -0.000001 87.511600 85.932200 -87.701400 8.984550 -0.406207 -0.000000 0.361286 -0.340854 -0.378221 16.377300 -0.000001 -0.000001 4.100790 -2.884840 2.363980 6.456720 -0.000001 -0.000000 7.172850 -3.788840 -1.276540 12.994200 -0.242716 4.980390 -89.589200 -1.256970 -71.899000 5.348090 -0.000007 -0.000001 -70.639500 37.514500 -11.037300 24.328600 0.000019 0.000005 1.594750 4.141210 -21.082400 22.291600 -0.000001 0.000005 5.580230 5.469600 -5.355250 12.994500 -0.242716 -4.980390 89.988400 0.034298 -71.403100 -5.348130 -0.000001 -0.000004 -75.058300 -30.832000 -90.538000 -24.328900 0.000322 -0.000009 12.341300 0.806007 -86.322800 -22.291500 -0.000108 -0.000004 21.784700 5.289740 0.358282 -2.192480 -6.469440 -0.000000 -175.294000 -7.429630 -1.863390 39.081100 -0.000007 -0.000012 -0.100487 0.235482 23.109400 40.985400 -0.000006 -0.000013 0.349012 4.647540 -66.117300 11.754300 -0.000000 0.000003 -0.000047 -0.000538 -16.598500 -2.192510 6.469440 -0.000001 179.571000 14.251400 -179.143000 -39.081100 -0.002282 -0.040193 -0.036980 0.114700 19.360300 -40.985400 0.000008 0.000006 3.348000 8.010900 -65.308700 -11.754300 -0.000006 -0.000006 -0.009173 -0.097352 -20.538600
0.000000 0.000000 0.000000 0.000000 0.000000 -0.000000 -0.200608 92.349900 -1.292790 87.851800 -0.734359 5.372840 15.735700 0.000005 -0.000001 87.431700 85.912800 -87.623500 8.984550 -0.406207 -0.000000 0.399680 -0.353860 -0.381994 16.377300 -0.000001 -0.000001 4.063440 -2.926270 2.414900 6.456720 -0.000001 -0.000000 7.185970 -3.835010 -1.271890 12.994200 -0.242716 4.980390 -89.590900 -1.252810 -71.912700 5.348090 -0.000007 -0.000001 -70.563400 37.517000 -11.075900 24.328600 0.000019 0.000005 1.666050 4.315710 -21.131800 22.291600 -0.000001 0.000005 5.736040 5.471080 -5.410680 12.994500 -0.242716 -4.980390 89.993100 0.020483 -71.351000 -5.348130 -0.000001 -0.000004 -74.937800 -30.856300 -90.585700 -24.328900 0.000322 -0.000009 12.096800 0.836559 -86.104500 -22.291500 -0.000108 -0.000004 21.784100 5.292020 0.294914 -2.192480 -6.469440 -0.000000 -175.298000 -7.385130 -1.848110 39.081100 -0.000007 -0.000012 -0.099601 0.233560 23.095700 40.985400 -0.000006 -0.000013 0.355210 4.665530 -66.096700 11.754300 -0.000000 0.000003 -0.000042 -0.000483 -16.596400 -2.192510 6.469440 -0.000001 179.566000 14.276100 -179.104000 -39.081100 -0.002282 -0.040193 -0.035770 0.111435 19.331300 -40.985400 0.000008 0.000006 3.344090 8.011280 -65.291500 -11.754300 -0.000006 -0.000006 -0.009013 -0.096110 -20.487900
0.000000 0.000000 0.000000 0.000000 0.000000 -0.000000 -0.197690 92.353200 -1.322720 87.847600 -0.721879 5.324600 15.735700 0.000005 -0.000001 87.493900 85.913900 -87.672700 8.984550 -0.406207 -0.000000 0.397856 -0.345734 -0.356132 16.377300 -0.000001 -0.000001 4.067510 -2.940960 2.428030 6.456720 -0.000001 -0.000000 7.150820 -3.899560 -1.271070 12.994200 -0.242716 4.980390 -89.593500 -1.248250 -71.961000 5.348090 -0.000007 -0.000001 -70.547300 37.499100 -11.094100 24.328600 0.000019 0.000005 1.625770 4.198050 -21.191700 22.291600 -0.000001 0.000005 5.668900 5.470600 -5.392870 12.994500 -0.242716 -4.980390 89.996900 0.009033 -71.288200 -5.348130 -0.000001 -0.000004 -74.654000 -30.866100 -90.606900 -24.328900 0.000322 -0.000009 11.768400 0.848960 -85.933700 -22.291500 -0.000108 -0.000004 22.039700 5.293970 0.240854 -2.192480 -6.469440 -0.000000 -175.298000 -7.378130 -1.921790 39.081100 -0.000007 -0.000012 -0.101285 0.237529 23.094000 40.985400 -0.000006 -0.000013 0.354363 4.678490 -66.070800 11.754300 -0.000000 0.000003 -0.000051 -0.000574 -16.599800 -2.192510 6.469440 -0.000001 179.606000 14.260200 -179.183000 -39.081100 -0.002282 -0.040193 -0.033645 0.105292 19.345900 -40.985400 0.000008 0.000006 3.444470 7.933980 -65.295000 -11.754300 -0.000006 -0.000006 -0.008971 -0.095782 -20.474500
0.000000 0.000000 0.000000 0.000000 0.000000 -0.000000 -0.186518 92.355100 -1.344650 87.828900 -0.759644 5.322840 15.735700 0.000005 -0.000001 87.652900 85.906400 -87.800200 8.984550 -0.406207 -0.000000 0.413885 -0.325749 -0.293360 16.377300 -0.000001 -0.000001 4.025280 -2.948530 2.440990 6.456720 -0.000001 -0.000000 7.192360 -3.888700 -1.318940 12.994200 -0.242716 4.980390 -89.605000 -1.211150 -71.935700 5.348090 -0.000007 -0.000001 -70.502900 37.604700 -11.145700 24.328600 0.000019 0.000005 1.610370 4.157930 -21.192800 22.291600 -0.000001 0.000005 5.685840 5.471550 -5.428480 12.994500 -0.242716 -4.980390 90.012200 -0.035882 -71.273600 -5.348130 -0.000001 -0.000004 -74.103500 -30.963600 -90.255600 -24.328900 0.000322 -0.000009 11.501500 0.816867 -85.993900 -22.291500 -0.000108 -0.000004 22.164600 5.301900 0.019057 -2.192480 -6.469440 -0.000000 -175.295000 -7.351490 -1.939960 39.081100 -0.000007 -0.000012 -0.101167 0.237115 23.106000 40.985400 -0.000006 -0.000013 0.354828 4.633290 -66.066000 11.754300 -0.000000 0.000003 -0.000041 -0.000476 -16.596100 -2.192510 6.469440 -0.000001 179.625000 14.282200 -179.198000 -39.081100 -0.002282 -0.040193 -0.032335 0.101649 19.330300 -40.985400 0.000008 0.000006 3.431770 7.970970 -65.263500 -11.754300 -0.000006 -0.000006 -0.009138 -0.097078 -20.527400
